<svg width="45" height="41" viewBox="0 0 45 41" fill="none" xmlns="http://www.w3.org/2000/svg">
<g id="Add">
<rect id="Base" x="0.199219" y="0.885254" width="43.8299" height="39.7208" rx="8.93034" fill="#323142"/>
<g id="+">
<mask id="path-2-inside-1_1_16631" fill="white">
<path d="M29.0767 21.9628H22.7371V28.3916H20.2073V21.9628H13.8975V19.671H20.2073V13.2124H22.7371V19.671H29.0767V21.9628Z"/>
</mask>
<path d="M29.0767 21.9628H22.7371V28.3916H20.2073V21.9628H13.8975V19.671H20.2073V13.2124H22.7371V19.671H29.0767V21.9628Z" fill="black"/>
<path d="M29.0767 21.9628V26.0718H33.1858V21.9628H29.0767ZM22.7371 21.9628V17.8537H18.6281V21.9628H22.7371ZM22.7371 28.3916V32.5007H26.8462V28.3916H22.7371ZM20.2073 28.3916H16.0982V32.5007H20.2073V28.3916ZM20.2073 21.9628H24.3163V17.8537H20.2073V21.9628ZM13.8975 21.9628H9.78841V26.0718H13.8975V21.9628ZM13.8975 19.671V15.562H9.78841V19.671H13.8975ZM20.2073 19.671V23.7801H24.3163V19.671H20.2073ZM20.2073 13.2124V9.10335H16.0982V13.2124H20.2073ZM22.7371 13.2124H26.8462V9.10335H22.7371V13.2124ZM22.7371 19.671H18.6281V23.7801H22.7371V19.671ZM29.0767 19.671H33.1858V15.562H29.0767V19.671ZM29.0767 17.8537H22.7371V26.0718H29.0767V17.8537ZM18.6281 21.9628V28.3916H26.8462V21.9628H18.6281ZM22.7371 24.2826H20.2073V32.5007H22.7371V24.2826ZM24.3163 28.3916V21.9628H16.0982V28.3916H24.3163ZM20.2073 17.8537H13.8975V26.0718H20.2073V17.8537ZM18.0065 21.9628V19.671H9.78841V21.9628H18.0065ZM13.8975 23.7801H20.2073V15.562H13.8975V23.7801ZM24.3163 19.671V13.2124H16.0982V19.671H24.3163ZM20.2073 17.3215H22.7371V9.10335H20.2073V17.3215ZM18.6281 13.2124V19.671H26.8462V13.2124H18.6281ZM22.7371 23.7801H29.0767V15.562H22.7371V23.7801ZM24.9677 19.671V21.9628H33.1858V19.671H24.9677Z" fill="white" mask="url(#path-2-inside-1_1_16631)"/>
</g>
</g>
</svg>
