<svg width="162" height="171" viewBox="0 0 162 171" fill="none" xmlns="http://www.w3.org/2000/svg">
<g filter="url(#filter0_d_1_6172)">
<g filter="url(#filter1_d_1_6172)">
<rect x="14.999" y="28.9336" width="113.097" height="105.541" rx="10.6667" fill="white"/>
<rect x="15.0874" y="29.022" width="112.92" height="105.364" rx="10.5782" stroke="#EDF2F7" stroke-width="0.176834"/>
</g>
<path d="M62.8573 124.479V124.779H60.7809V124.564L62.0678 122.572H62.3658L62.0461 123.149L61.1954 124.479H62.8573ZM62.4566 122.572V125.446H62.0915V122.572H62.4566ZM64.0613 125.446H63.4613L63.4652 125.136H64.0613C64.2666 125.136 64.4377 125.093 64.5745 125.008C64.7113 124.921 64.814 124.8 64.8824 124.645C64.9522 124.488 64.987 124.305 64.987 124.096V123.92C64.987 123.756 64.9673 123.61 64.9278 123.482C64.8883 123.353 64.8304 123.245 64.7541 123.156C64.6778 123.067 64.5844 122.999 64.4738 122.953C64.3646 122.907 64.239 122.884 64.0968 122.884H63.4494V122.572H64.0968C64.285 122.572 64.4567 122.604 64.612 122.667C64.7673 122.729 64.9008 122.819 65.0127 122.937C65.1258 123.054 65.2127 123.197 65.2732 123.364C65.3338 123.529 65.364 123.716 65.364 123.924V124.096C65.364 124.304 65.3338 124.491 65.2732 124.659C65.2127 124.824 65.1252 124.966 65.0107 125.083C64.8975 125.2 64.7607 125.29 64.6002 125.353C64.4409 125.415 64.2613 125.446 64.0613 125.446ZM63.6646 122.572V125.446H63.2836V122.572H63.6646Z" fill="#828282"/>
<path d="M79.231 124.417L78.9388 124.342L79.0829 122.911H80.5574V123.249H79.3928L79.306 124.03C79.3586 124 79.4251 123.972 79.5053 123.945C79.5869 123.919 79.6803 123.906 79.7856 123.906C79.9185 123.906 80.0376 123.929 80.1429 123.975C80.2481 124.02 80.3376 124.084 80.4113 124.168C80.4863 124.253 80.5435 124.354 80.583 124.472C80.6225 124.591 80.6422 124.723 80.6422 124.869C80.6422 125.007 80.6231 125.134 80.585 125.25C80.5481 125.366 80.4922 125.467 80.4172 125.554C80.3422 125.64 80.2475 125.706 80.133 125.753C80.0198 125.801 79.8863 125.824 79.7323 125.824C79.6165 125.824 79.5066 125.809 79.4027 125.777C79.3001 125.744 79.2079 125.695 79.1264 125.629C79.0461 125.562 78.9803 125.479 78.929 125.38C78.879 125.28 78.8474 125.163 78.8342 125.029H79.1816C79.1974 125.137 79.229 125.228 79.2764 125.301C79.3237 125.375 79.3856 125.431 79.4619 125.469C79.5395 125.506 79.6297 125.524 79.7323 125.524C79.8192 125.524 79.8961 125.509 79.9632 125.479C80.0304 125.449 80.0869 125.405 80.133 125.349C80.179 125.292 80.2139 125.224 80.2376 125.143C80.2626 125.063 80.2751 124.973 80.2751 124.873C80.2751 124.782 80.2626 124.698 80.2376 124.62C80.2126 124.543 80.1751 124.475 80.1251 124.417C80.0764 124.359 80.0165 124.314 79.9455 124.283C79.8744 124.25 79.7928 124.234 79.7007 124.234C79.5784 124.234 79.4856 124.25 79.4224 124.283C79.3606 124.316 79.2968 124.36 79.231 124.417ZM81.9153 125.785H81.3153L81.3192 125.475H81.9153C82.1206 125.475 82.2917 125.432 82.4285 125.347C82.5654 125.26 82.668 125.139 82.7364 124.984C82.8062 124.827 82.841 124.644 82.841 124.435V124.259C82.841 124.095 82.8213 123.949 82.7818 123.821C82.7423 123.692 82.6844 123.583 82.6081 123.495C82.5318 123.406 82.4384 123.338 82.3278 123.292C82.2186 123.246 82.093 123.223 81.9508 123.223H81.3034V122.911H81.9508C82.139 122.911 82.3107 122.943 82.466 123.006C82.6213 123.068 82.7548 123.158 82.8667 123.276C82.9798 123.393 83.0667 123.535 83.1272 123.703C83.1878 123.868 83.218 124.055 83.218 124.263V124.435C83.218 124.643 83.1878 124.83 83.1272 124.997C83.0667 125.163 82.9792 125.305 82.8647 125.422C82.7515 125.539 82.6147 125.629 82.4542 125.692C82.2949 125.754 82.1153 125.785 81.9153 125.785ZM81.5186 122.911V125.785H81.1376V122.911H81.5186Z" fill="#828282"/>
<path d="M98.0235 122.907H98.0551V123.217H98.0235C97.8301 123.217 97.6682 123.249 97.538 123.312C97.4077 123.374 97.3044 123.457 97.2281 123.562C97.1518 123.666 97.0965 123.783 97.0623 123.914C97.0294 124.044 97.0129 124.176 97.0129 124.31V124.733C97.0129 124.861 97.0281 124.974 97.0583 125.072C97.0886 125.17 97.1301 125.252 97.1827 125.319C97.2353 125.386 97.2945 125.437 97.3603 125.471C97.4274 125.505 97.4972 125.522 97.5695 125.522C97.6538 125.522 97.7288 125.507 97.7946 125.475C97.8604 125.442 97.9156 125.397 97.9604 125.339C98.0064 125.28 98.0413 125.21 98.065 125.13C98.0887 125.049 98.1005 124.961 98.1005 124.865C98.1005 124.78 98.09 124.697 98.0689 124.618C98.0479 124.538 98.0156 124.467 97.9722 124.405C97.9288 124.342 97.8742 124.293 97.8084 124.257C97.7439 124.22 97.6669 124.202 97.5774 124.202C97.4761 124.202 97.3814 124.227 97.2932 124.277C97.2064 124.326 97.1347 124.39 97.0781 124.47C97.0228 124.549 96.9912 124.636 96.9833 124.729L96.7899 124.727C96.8083 124.58 96.8425 124.454 96.8925 124.35C96.9439 124.245 97.007 124.159 97.082 124.093C97.1583 124.026 97.2432 123.978 97.3366 123.947C97.4314 123.916 97.5314 123.9 97.6367 123.9C97.7801 123.9 97.9038 123.927 98.0077 123.981C98.1117 124.035 98.1972 124.107 98.2643 124.198C98.3314 124.287 98.3808 124.389 98.4124 124.502C98.4453 124.614 98.4617 124.729 98.4617 124.847C98.4617 124.983 98.4426 125.11 98.4045 125.228C98.3663 125.347 98.3091 125.451 98.2327 125.54C98.1577 125.63 98.065 125.699 97.9544 125.749C97.8439 125.799 97.7156 125.824 97.5695 125.824C97.4143 125.824 97.2787 125.793 97.1629 125.73C97.0472 125.665 96.9511 125.58 96.8748 125.473C96.7985 125.366 96.7412 125.248 96.7031 125.118C96.6649 124.988 96.6458 124.855 96.6458 124.721V124.549C96.6458 124.347 96.6662 124.148 96.707 123.953C96.7478 123.758 96.8182 123.582 96.9182 123.424C97.0195 123.266 97.1597 123.141 97.3386 123.047C97.5176 122.954 97.7459 122.907 98.0235 122.907ZM99.7683 125.785H99.1683L99.1723 125.475H99.7683C99.9736 125.475 100.145 125.432 100.282 125.347C100.418 125.26 100.521 125.139 100.589 124.984C100.659 124.827 100.694 124.644 100.694 124.435V124.259C100.694 124.095 100.674 123.949 100.635 123.821C100.595 123.692 100.537 123.583 100.461 123.495C100.385 123.406 100.291 123.338 100.181 123.292C100.072 123.246 99.946 123.223 99.8039 123.223H99.1565V122.911H99.8039C99.992 122.911 100.164 122.943 100.319 123.006C100.474 123.068 100.608 123.158 100.72 123.276C100.833 123.393 100.92 123.535 100.98 123.703C101.041 123.868 101.071 124.055 101.071 124.263V124.435C101.071 124.643 101.041 124.83 100.98 124.997C100.92 125.163 100.832 125.305 100.718 125.422C100.605 125.539 100.468 125.629 100.307 125.692C100.148 125.754 99.9684 125.785 99.7683 125.785ZM99.3716 122.911V125.785H98.9907V122.911H99.3716Z" fill="#828282"/>
<path d="M114.986 122.911V123.116L113.796 125.785H113.411L114.599 123.211H113.044V122.911H114.986ZM116.275 125.785H115.675L115.679 125.475H116.275C116.48 125.475 116.652 125.432 116.788 125.347C116.925 125.26 117.028 125.139 117.096 124.984C117.166 124.827 117.201 124.644 117.201 124.435V124.259C117.201 124.095 117.181 123.949 117.142 123.821C117.102 123.692 117.044 123.583 116.968 123.495C116.892 123.406 116.798 123.338 116.688 123.292C116.578 123.246 116.453 123.223 116.311 123.223H115.663V122.911H116.311C116.499 122.911 116.671 122.943 116.826 123.006C116.981 123.068 117.115 123.158 117.227 123.276C117.34 123.393 117.427 123.535 117.487 123.703C117.548 123.868 117.578 124.055 117.578 124.263V124.435C117.578 124.643 117.548 124.83 117.487 124.997C117.427 125.163 117.339 125.305 117.225 125.422C117.111 125.539 116.975 125.629 116.814 125.692C116.655 125.754 116.475 125.785 116.275 125.785ZM115.878 122.911V125.785H115.498V122.911H115.878Z" fill="#828282"/>
<rect x="34.2896" y="119.09" width="14.599" height="9.73279" rx="4.8664" fill="#E7E7E7" fill-opacity="0.92"/>
<path d="M41.2912 125.492V125.936H39.3253V125.557L40.255 124.561C40.3484 124.457 40.4221 124.365 40.476 124.286C40.53 124.206 40.5688 124.134 40.5925 124.071C40.6175 124.007 40.63 123.945 40.63 123.887C40.63 123.801 40.6155 123.726 40.5866 123.664C40.5576 123.601 40.5148 123.553 40.4583 123.518C40.403 123.484 40.3346 123.467 40.253 123.467C40.1661 123.467 40.0911 123.488 40.028 123.53C39.9661 123.572 39.9188 123.631 39.8859 123.706C39.8543 123.781 39.8385 123.866 39.8385 123.961H39.2681C39.2681 123.789 39.3089 123.633 39.3904 123.491C39.472 123.347 39.5872 123.234 39.7359 123.149C39.8845 123.064 40.0609 123.021 40.2648 123.021C40.4662 123.021 40.6359 123.054 40.7741 123.12C40.9135 123.184 41.0188 123.278 41.0899 123.4C41.1622 123.521 41.1984 123.666 41.1984 123.834C41.1984 123.929 41.1833 124.022 41.153 124.112C41.1228 124.202 41.0793 124.291 41.0228 124.381C40.9675 124.469 40.9004 124.559 40.8214 124.649C40.7425 124.74 40.655 124.834 40.5589 124.932L40.0596 125.492H41.2912ZM42.588 125.936H41.9623L41.9662 125.474H42.588C42.7433 125.474 42.8742 125.44 42.9808 125.37C43.0873 125.299 43.1676 125.195 43.2216 125.06C43.2768 124.924 43.3045 124.761 43.3045 124.568V124.428C43.3045 124.281 43.2887 124.151 43.2571 124.039C43.2268 123.928 43.1814 123.834 43.1209 123.757C43.0604 123.681 42.986 123.624 42.8979 123.585C42.8097 123.546 42.7084 123.526 42.5939 123.526H41.9504V123.062H42.5939C42.786 123.062 42.9617 123.095 43.1209 123.161C43.2814 123.226 43.4203 123.318 43.5374 123.439C43.6545 123.56 43.7446 123.705 43.8078 123.874C43.8723 124.041 43.9045 124.227 43.9045 124.432V124.568C43.9045 124.772 43.8723 124.959 43.8078 125.127C43.7446 125.295 43.6545 125.44 43.5374 125.561C43.4216 125.681 43.2828 125.774 43.1209 125.84C42.9604 125.904 42.7827 125.936 42.588 125.936ZM42.2978 123.062V125.936H41.7057V123.062H42.2978Z" fill="#151515"/>
<path d="M15.0396 103.193C21.0882 103.193 21.6735 110.596 28.1124 110.596C34.5512 110.596 32.9903 89.556 39.0389 89.556C45.0875 89.556 41.7706 71.8277 50.1606 71.8277C58.5506 71.8277 54.6483 89.556 62.2578 89.556C69.8674 89.556 68.6967 68.861 73.5746 68.861C78.4525 68.861 77.0867 81.1789 82.9402 81.1789C88.7937 81.1789 86.0621 60.8618 92.3058 60.8618C98.5495 60.8618 97.9642 69.7305 103.623 69.7305C109.281 69.7305 109.866 80.01 117.671 80.01C125.476 80.01 120.598 91.4675 128.012 91.4675" stroke="#6C5FBC" stroke-width="0.682483" stroke-linecap="round" stroke-linejoin="round"/>
<circle cx="109.074" cy="73.5404" r="1.76405" fill="#C5BFED" stroke="#6C5FBC" stroke-width="1.41302"/>
<rect x="111.536" y="62.958" width="13.0094" height="6.07106" rx="3.03553" fill="#6C5FBC"/>
<path d="M115.272 66.6825C115.272 66.805 115.24 66.9204 115.177 67.0287C115.115 67.1347 115.024 67.223 114.901 67.2937C114.781 67.362 114.638 67.402 114.474 67.4138V67.6999H114.248V67.4102C114.012 67.389 113.822 67.3184 113.679 67.1983C113.535 67.0758 113.461 66.911 113.456 66.7037H113.986C114 66.8733 114.087 66.9757 114.248 67.0111V66.3363C114.078 66.294 113.941 66.2516 113.838 66.2092C113.734 66.1668 113.645 66.0985 113.569 66.0043C113.494 65.9101 113.456 65.7817 113.456 65.6192C113.456 65.4143 113.529 65.2471 113.675 65.1176C113.824 64.9881 114.014 64.9139 114.248 64.8951V64.6089H114.474V64.8951C114.7 64.9139 114.88 64.9822 115.014 65.1C115.151 65.2177 115.227 65.3802 115.244 65.5874H114.71C114.703 65.5191 114.679 65.4603 114.636 65.4108C114.596 65.359 114.542 65.3225 114.474 65.3013V65.969C114.65 66.0137 114.789 66.0573 114.89 66.0997C114.994 66.1397 115.084 66.2068 115.159 66.301C115.234 66.3929 115.272 66.52 115.272 66.6825ZM113.972 65.5945C113.972 65.6722 113.996 65.7358 114.043 65.7853C114.09 65.8324 114.158 65.8712 114.248 65.9018V65.2907C114.163 65.3025 114.096 65.3343 114.046 65.3861C113.997 65.4379 113.972 65.5074 113.972 65.5945ZM114.474 67.0181C114.563 67.0016 114.633 66.9651 114.682 66.9086C114.734 66.8521 114.76 66.7838 114.76 66.7037C114.76 66.626 114.735 66.5636 114.686 66.5165C114.636 66.4694 114.565 66.4305 114.474 66.3999V67.0181ZM115.746 66.891V66.5024L116.902 64.8491H117.477V66.46H117.788V66.891H117.477V67.3926H116.983V66.891H115.746ZM117.015 65.379L116.29 66.46H117.015V65.379ZM118.103 66.0714C118.103 65.664 118.176 65.3449 118.322 65.1141C118.47 64.8833 118.715 64.7679 119.057 64.7679C119.398 64.7679 119.642 64.8833 119.788 65.1141C119.936 65.3449 120.011 65.664 120.011 66.0714C120.011 66.4812 119.936 66.8026 119.788 67.0358C119.642 67.2689 119.398 67.3855 119.057 67.3855C118.715 67.3855 118.47 67.2689 118.322 67.0358C118.176 66.8026 118.103 66.4812 118.103 66.0714ZM119.523 66.0714C119.523 65.8971 119.511 65.7511 119.488 65.6334C119.467 65.5133 119.422 65.4155 119.354 65.3402C119.288 65.2648 119.189 65.2271 119.057 65.2271C118.925 65.2271 118.825 65.2648 118.757 65.3402C118.691 65.4155 118.646 65.5133 118.622 65.6334C118.601 65.7511 118.591 65.8971 118.591 66.0714C118.591 66.2504 118.601 66.4011 118.622 66.5236C118.644 66.6437 118.688 66.7414 118.757 66.8168C118.825 66.8898 118.925 66.9263 119.057 66.9263C119.189 66.9263 119.289 66.8898 119.357 66.8168C119.425 66.7414 119.47 66.6437 119.491 66.5236C119.513 66.4011 119.523 66.2504 119.523 66.0714ZM120.959 66.6684C120.978 66.772 121.02 66.8521 121.086 66.9086C121.155 66.9628 121.245 66.9899 121.358 66.9899C121.504 66.9899 121.61 66.9298 121.676 66.8097C121.742 66.6872 121.775 66.4824 121.775 66.195C121.721 66.2704 121.644 66.3293 121.546 66.3717C121.449 66.4141 121.344 66.4353 121.231 66.4353C121.08 66.4353 120.944 66.4046 120.821 66.3434C120.701 66.2798 120.606 66.1868 120.535 66.0643C120.465 65.9395 120.429 65.7888 120.429 65.6122C120.429 65.3508 120.507 65.1435 120.662 64.9904C120.818 64.835 121.03 64.7573 121.298 64.7573C121.633 64.7573 121.868 64.8644 122.005 65.0788C122.144 65.2931 122.213 65.6157 122.213 66.0467C122.213 66.3528 122.186 66.6036 122.132 66.7991C122.08 66.9946 121.989 67.1429 121.86 67.2442C121.733 67.3455 121.558 67.3961 121.337 67.3961C121.163 67.3961 121.014 67.3631 120.892 67.2972C120.77 67.2289 120.675 67.1406 120.609 67.0323C120.546 66.9216 120.509 66.8003 120.5 66.6684H120.959ZM121.334 66.0325C121.456 66.0325 121.553 65.9949 121.623 65.9195C121.694 65.8441 121.729 65.7429 121.729 65.6157C121.729 65.4768 121.692 65.3696 121.616 65.2942C121.543 65.2165 121.443 65.1777 121.316 65.1777C121.189 65.1777 121.087 65.2177 121.012 65.2978C120.939 65.3755 120.903 65.4791 120.903 65.6086C120.903 65.7335 120.938 65.8359 121.009 65.916C121.082 65.9937 121.19 66.0325 121.334 66.0325Z" fill="white"/>
<line opacity="0.09" x1="15.2043" y1="100.126" x2="127.698" y2="100.126" stroke="#6C5FBC" stroke-width="0.372494" stroke-linecap="round"/>
<line opacity="0.09" x1="15.5769" y1="87.46" x2="128.07" y2="87.46" stroke="#6C5FBC" stroke-width="0.372494" stroke-linecap="round"/>
<line opacity="0.09" x1="15.2043" y1="74.4226" x2="127.698" y2="74.4226" stroke="#6C5FBC" stroke-width="0.372494" stroke-linecap="round"/>
<g clip-path="url(#clip0_1_6172)">
<rect x="29.1367" y="37.2212" width="20.6997" height="9.74975" rx="4.87488" fill="#6C5FBC"/>
<path d="M38.0278 41.2346V43.5959H37.7172V41.8351L36.9324 43.5959H36.714L35.9257 41.8317V43.5959H35.6152V41.2346H35.9496L36.8232 43.1865L37.6968 41.2346H38.0278ZM38.4384 42.6541C38.4384 42.463 38.4771 42.2958 38.5544 42.1525C38.6318 42.0069 38.7375 41.8943 38.8718 41.8147C39.0083 41.735 39.1595 41.6952 39.3256 41.6952C39.4894 41.6952 39.6316 41.7305 39.7522 41.801C39.8727 41.8715 39.9626 41.9603 40.0217 42.0672V41.7259H40.3357V43.5959H40.0217V43.2479C39.9603 43.3571 39.8682 43.4481 39.7453 43.5209C39.6248 43.5914 39.4837 43.6267 39.3222 43.6267C39.1561 43.6267 39.006 43.5857 38.8718 43.5038C38.7375 43.4219 38.6318 43.307 38.5544 43.1592C38.4771 43.0113 38.4384 42.8429 38.4384 42.6541ZM40.0217 42.6575C40.0217 42.5165 39.9933 42.3936 39.9364 42.289C39.8796 42.1843 39.8022 42.1047 39.7044 42.0501C39.6088 41.9933 39.5031 41.9648 39.387 41.9648C39.271 41.9648 39.1652 41.9921 39.0697 42.0467C38.9741 42.1013 38.8979 42.1809 38.841 42.2856C38.7842 42.3902 38.7557 42.5131 38.7557 42.6541C38.7557 42.7974 38.7842 42.9226 38.841 43.0295C38.8979 43.1341 38.9741 43.2149 39.0697 43.2718C39.1652 43.3264 39.271 43.3537 39.387 43.3537C39.5031 43.3537 39.6088 43.3264 39.7044 43.2718C39.8022 43.2149 39.8796 43.1341 39.9364 43.0295C39.9933 42.9226 40.0217 42.7986 40.0217 42.6575ZM41.0208 41.4222C40.9617 41.4222 40.9116 41.4018 40.8707 41.3608C40.8297 41.3199 40.8093 41.2698 40.8093 41.2107C40.8093 41.1515 40.8297 41.1015 40.8707 41.0605C40.9116 41.0196 40.9617 40.9991 41.0208 40.9991C41.0777 40.9991 41.1255 41.0196 41.1642 41.0605C41.2051 41.1015 41.2256 41.1515 41.2256 41.2107C41.2256 41.2698 41.2051 41.3199 41.1642 41.3608C41.1255 41.4018 41.0777 41.4222 41.0208 41.4222ZM41.171 41.7259V43.5959H40.8605V41.7259H41.171ZM42.6113 41.6918C42.8388 41.6918 43.0231 41.7612 43.1642 41.9C43.3052 42.0365 43.3757 42.2344 43.3757 42.4937V43.5959H43.0686V42.5381C43.0686 42.3516 43.022 42.2094 42.9287 42.1115C42.8354 42.0114 42.708 41.9614 42.5465 41.9614C42.3827 41.9614 42.2519 42.0126 42.1541 42.115C42.0585 42.2173 42.0108 42.3663 42.0108 42.562V43.5959H41.7002V41.7259H42.0108V41.9921C42.0722 41.8966 42.1552 41.8226 42.2599 41.7703C42.3668 41.718 42.4839 41.6918 42.6113 41.6918Z" fill="white"/>
<path d="M59.92 41.0476L59.1814 43.5959H58.8085L58.2162 41.5448L57.602 43.5959L57.2327 43.5996L56.5198 41.0476H56.8744L57.4301 43.2084L58.0444 41.0476H58.4173L59.0023 43.2011L59.5617 41.0476H59.92ZM62.1487 42.5174C62.1487 42.5808 62.1451 42.6478 62.1378 42.7185H60.5364C60.5485 42.9159 60.6156 43.0707 60.7374 43.1828C60.8618 43.2925 61.0117 43.3473 61.1872 43.3473C61.331 43.3473 61.4504 43.3144 61.5455 43.2486C61.643 43.1804 61.7112 43.0902 61.7502 42.9781H62.1085C62.0549 43.1706 61.9476 43.3278 61.7868 43.4497C61.6259 43.5691 61.426 43.6289 61.1872 43.6289C60.997 43.6289 60.8264 43.5862 60.6753 43.5009C60.5266 43.4156 60.4096 43.2949 60.3243 43.1389C60.239 42.9805 60.1963 42.7977 60.1963 42.5905C60.1963 42.3833 60.2378 42.2017 60.3206 42.0457C60.4035 41.8897 60.5193 41.7703 60.668 41.6874C60.8191 41.6021 60.9922 41.5595 61.1872 41.5595C61.3773 41.5595 61.5455 41.6009 61.6917 41.6838C61.8379 41.7666 61.9501 41.8812 62.0281 42.0275C62.1085 42.1713 62.1487 42.3346 62.1487 42.5174ZM61.805 42.4479C61.805 42.3212 61.777 42.2127 61.721 42.1225C61.6649 42.0299 61.5881 41.9604 61.4906 41.9141C61.3956 41.8654 61.2895 41.841 61.1725 41.841C61.0043 41.841 60.8605 41.8946 60.7411 42.0019C60.6241 42.1091 60.5571 42.2578 60.54 42.4479H61.805ZM64.4525 42.5174C64.4525 42.5808 64.4489 42.6478 64.4416 42.7185H62.8402C62.8524 42.9159 62.9194 43.0707 63.0413 43.1828C63.1656 43.2925 63.3155 43.3473 63.491 43.3473C63.6348 43.3473 63.7542 43.3144 63.8493 43.2486C63.9468 43.1804 64.015 43.0902 64.054 42.9781H64.4123C64.3587 43.1706 64.2514 43.3278 64.0906 43.4497C63.9297 43.5691 63.7298 43.6289 63.491 43.6289C63.3008 43.6289 63.1302 43.5862 62.9791 43.5009C62.8304 43.4156 62.7134 43.2949 62.6281 43.1389C62.5428 42.9805 62.5001 42.7977 62.5001 42.5905C62.5001 42.3833 62.5416 42.2017 62.6245 42.0457C62.7073 41.8897 62.8231 41.7703 62.9718 41.6874C63.1229 41.6021 63.296 41.5595 63.491 41.5595C63.6811 41.5595 63.8493 41.6009 63.9955 41.6838C64.1418 41.7666 64.2539 41.8812 64.3319 42.0275C64.4123 42.1713 64.4525 42.3346 64.4525 42.5174ZM64.1088 42.4479C64.1088 42.3212 64.0808 42.2127 64.0248 42.1225C63.9687 42.0299 63.8919 41.9604 63.7944 41.9141C63.6994 41.8654 63.5933 41.841 63.4763 41.841C63.3082 41.841 63.1643 41.8946 63.0449 42.0019C62.9279 42.1091 62.8609 42.2578 62.8438 42.4479H64.1088ZM66.047 43.5959L65.261 42.7112V43.5959H64.9283V40.8904H65.261V42.4808L66.0324 41.5924H66.4967L65.5535 42.5905L66.5004 43.5959H66.047ZM67.1792 40.8904V43.5959H66.8465V40.8904H67.1792ZM69.5085 41.5924L68.3019 44.5392H67.9583L68.3531 43.574L67.5451 41.5924H67.9144L68.5433 43.2157L69.1648 41.5924H69.5085Z" fill="#828282"/>
<path d="M82.0172 41.0659V43.5959H81.6845V41.7094L80.8436 43.5959H80.6096L79.765 41.7057V43.5959H79.4323V41.0659H79.7906L80.7266 43.1572L81.6626 41.0659H82.0172ZM83.4918 43.6289C83.3042 43.6289 83.1335 43.5862 82.98 43.5009C82.8289 43.4156 82.7094 43.2949 82.6217 43.1389C82.5364 42.9805 82.4937 42.7977 82.4937 42.5905C82.4937 42.3858 82.5376 42.2054 82.6253 42.0494C82.7155 41.891 82.8374 41.7703 82.9909 41.6874C83.1445 41.6021 83.3163 41.5595 83.5065 41.5595C83.6966 41.5595 83.8684 41.6021 84.022 41.6874C84.1755 41.7703 84.2962 41.8897 84.3839 42.0457C84.4741 42.2017 84.5192 42.3833 84.5192 42.5905C84.5192 42.7977 84.4729 42.9805 84.3803 43.1389C84.2901 43.2949 84.167 43.4156 84.011 43.5009C83.855 43.5862 83.682 43.6289 83.4918 43.6289ZM83.4918 43.3364C83.6113 43.3364 83.7234 43.3083 83.8282 43.2523C83.933 43.1962 84.0171 43.1121 84.0805 43C84.1463 42.8879 84.1792 42.7514 84.1792 42.5905C84.1792 42.4296 84.1475 42.2931 84.0841 42.181C84.0208 42.0689 83.9379 41.986 83.8355 41.9324C83.7331 41.8763 83.6222 41.8483 83.5028 41.8483C83.3809 41.8483 83.2688 41.8763 83.1664 41.9324C83.0665 41.986 82.9861 42.0689 82.9251 42.181C82.8642 42.2931 82.8337 42.4296 82.8337 42.5905C82.8337 42.7538 82.863 42.8915 82.9215 43.0036C82.9824 43.1158 83.0629 43.1999 83.1628 43.2559C83.2627 43.3095 83.3724 43.3364 83.4918 43.3364ZM85.9694 41.5558C86.2132 41.5558 86.4106 41.6302 86.5617 41.7788C86.7129 41.9251 86.7884 42.1371 86.7884 42.415V43.5959H86.4594V42.4625C86.4594 42.2627 86.4094 42.1103 86.3095 42.0055C86.2095 41.8983 86.073 41.8446 85.9 41.8446C85.7245 41.8446 85.5843 41.8995 85.4795 42.0092C85.3771 42.1189 85.3259 42.2785 85.3259 42.4881V43.5959H84.9932V41.5924H85.3259V41.8776C85.3918 41.7752 85.4807 41.696 85.5928 41.6399C85.7074 41.5838 85.8329 41.5558 85.9694 41.5558ZM87.7743 41.8666V43.0475C87.7743 43.145 87.795 43.2145 87.8364 43.2559C87.8779 43.2949 87.9498 43.3144 88.0522 43.3144H88.2971V43.5959H87.9973C87.8121 43.5959 87.6731 43.5533 87.5805 43.468C87.4879 43.3827 87.4416 43.2425 87.4416 43.0475V41.8666H87.182V41.5924H87.4416V41.0878H87.7743V41.5924H88.2971V41.8666H87.7743ZM89.0695 40.8904V43.5959H88.7368V40.8904H89.0695ZM91.3988 41.5924L90.1923 44.5392H89.8486L90.2435 43.574L89.4355 41.5924H89.8047L90.4336 43.2157L91.0551 41.5924H91.3988Z" fill="#828282"/>
<path d="M102.883 41.0476L102.053 42.6344V43.5959H101.72V42.6344L100.886 41.0476H101.256L101.885 42.3382L102.513 41.0476H102.883ZM105.098 42.5174C105.098 42.5808 105.095 42.6478 105.087 42.7185H103.486C103.498 42.9159 103.565 43.0707 103.687 43.1828C103.811 43.2925 103.961 43.3473 104.137 43.3473C104.28 43.3473 104.4 43.3144 104.495 43.2486C104.592 43.1804 104.661 43.0902 104.7 42.9781H105.058C105.004 43.1706 104.897 43.3278 104.736 43.4497C104.575 43.5691 104.376 43.6289 104.137 43.6289C103.947 43.6289 103.776 43.5862 103.625 43.5009C103.476 43.4156 103.359 43.2949 103.274 43.1389C103.189 42.9805 103.146 42.7977 103.146 42.5905C103.146 42.3833 103.187 42.2017 103.27 42.0457C103.353 41.8897 103.469 41.7703 103.618 41.6874C103.769 41.6021 103.942 41.5595 104.137 41.5595C104.327 41.5595 104.495 41.6009 104.641 41.6838C104.787 41.7666 104.9 41.8812 104.978 42.0275C105.058 42.1713 105.098 42.3346 105.098 42.5174ZM104.755 42.4479C104.755 42.3212 104.727 42.2127 104.67 42.1225C104.614 42.0299 104.538 41.9604 104.44 41.9141C104.345 41.8654 104.239 41.841 104.122 41.841C103.954 41.841 103.81 41.8946 103.691 42.0019C103.574 42.1091 103.507 42.2578 103.49 42.4479H104.755ZM105.45 42.5868C105.45 42.3821 105.491 42.203 105.574 42.0494C105.657 41.8934 105.77 41.7727 105.914 41.6874C106.06 41.6021 106.222 41.5595 106.4 41.5595C106.576 41.5595 106.728 41.5972 106.857 41.6728C106.986 41.7484 107.083 41.8434 107.146 41.958V41.5924H107.482V43.5959H107.146V43.223C107.08 43.34 106.982 43.4375 106.85 43.5155C106.721 43.5911 106.57 43.6289 106.397 43.6289C106.219 43.6289 106.058 43.585 105.914 43.4972C105.77 43.4095 105.657 43.2864 105.574 43.128C105.491 42.9695 105.45 42.7892 105.45 42.5868ZM107.146 42.5905C107.146 42.4394 107.116 42.3078 107.055 42.1956C106.994 42.0835 106.911 41.9982 106.806 41.9397C106.704 41.8788 106.59 41.8483 106.466 41.8483C106.342 41.8483 106.228 41.8776 106.126 41.9361C106.024 41.9946 105.942 42.0799 105.881 42.192C105.82 42.3041 105.79 42.4357 105.79 42.5868C105.79 42.7404 105.82 42.8745 105.881 42.989C105.942 43.1011 106.024 43.1877 106.126 43.2486C106.228 43.3071 106.342 43.3364 106.466 43.3364C106.59 43.3364 106.704 43.3071 106.806 43.2486C106.911 43.1877 106.994 43.1011 107.055 42.989C107.116 42.8745 107.146 42.7416 107.146 42.5905ZM108.414 41.9178C108.473 41.8032 108.555 41.7142 108.663 41.6509C108.772 41.5875 108.905 41.5558 109.061 41.5558V41.8995H108.973C108.6 41.8995 108.414 42.1018 108.414 42.5064V43.5959H108.081V41.5924H108.414V41.9178ZM109.814 40.8904V43.5959H109.482V40.8904H109.814ZM112.144 41.5924L110.937 44.5392H110.594L110.988 43.574L110.18 41.5924H110.55L111.179 43.2157L111.8 41.5924H112.144Z" fill="#828282"/>
</g>
</g>
<defs>
<filter id="filter0_d_1_6172" x="5.4538" y="0.489155" width="149.211" height="141.097" filterUnits="userSpaceOnUse" color-interpolation-filters="sRGB">
<feFlood flood-opacity="0" result="BackgroundImageFix"/>
<feColorMatrix in="SourceAlpha" type="matrix" values="0 0 0 0 0 0 0 0 0 0 0 0 0 0 0 0 0 0 127 0" result="hardAlpha"/>
<feOffset dx="8.53333" dy="-10.6667"/>
<feGaussianBlur stdDeviation="8.88889"/>
<feComposite in2="hardAlpha" operator="out"/>
<feColorMatrix type="matrix" values="0 0 0 0 0 0 0 0 0 0 0 0 0 0 0 0 0 0 0.15 0"/>
<feBlend mode="normal" in2="BackgroundImageFix" result="effect1_dropShadow_1_6172"/>
<feBlend mode="normal" in="SourceGraphic" in2="effect1_dropShadow_1_6172" result="shape"/>
</filter>
<filter id="filter1_d_1_6172" x="0.0204287" y="16.9507" width="161.029" height="153.473" filterUnits="userSpaceOnUse" color-interpolation-filters="sRGB">
<feFlood flood-opacity="0" result="BackgroundImageFix"/>
<feColorMatrix in="SourceAlpha" type="matrix" values="0 0 0 0 0 0 0 0 0 0 0 0 0 0 0 0 0 0 127 0" result="hardAlpha"/>
<feOffset dx="8.98715" dy="11.9829"/>
<feGaussianBlur stdDeviation="11.9829"/>
<feColorMatrix type="matrix" values="0 0 0 0 0.101961 0 0 0 0 0.12549 0 0 0 0 0.172549 0 0 0 0.15 0"/>
<feBlend mode="normal" in2="BackgroundImageFix" result="effect1_dropShadow_1_6172"/>
<feBlend mode="normal" in="SourceGraphic" in2="effect1_dropShadow_1_6172" result="shape"/>
</filter>
<clipPath id="clip0_1_6172">
<rect x="29.1367" y="37.2212" width="85.5356" height="9.74975" rx="4.87488" fill="white"/>
</clipPath>
</defs>
</svg>
